<svg width="204" height="204" viewBox="0 0 204 204" fill="none" xmlns="http://www.w3.org/2000/svg">
<circle cx="102" cy="102" r="101" fill="#1B4641" stroke="#1B4641" stroke-width="2"/>
<g clip-path="url(#clip0_465_1209)">
<path d="M96.5391 2.15614C96.0176 2.25256 94.3567 2.42609 92.8696 2.52249C89.3545 2.81171 83.8695 3.58296 83.2708 3.91074C83.097 4.00714 82.7107 4.08427 82.4403 4.08427C81.9382 4.08427 80.3158 4.43134 78.3845 4.95192C77.863 5.10617 76.9939 5.31827 76.4532 5.43396C75.9317 5.56892 75.1012 5.78102 74.6184 5.91599C74.1355 6.05095 73.2278 6.30161 72.5905 6.49442C70.6398 7.05357 70.099 7.22711 69.4617 7.49704C69.1334 7.632 68.7278 7.7477 68.5733 7.7477C68.3995 7.7477 68.2063 7.82483 68.1484 7.94051C68.0904 8.03691 67.8973 8.13332 67.7428 8.13332C67.5883 8.13332 67.0475 8.30685 66.5454 8.53822C66.0432 8.75032 65.4252 9.02026 65.1548 9.13594C64.0346 9.59869 63.4359 9.86862 61.9295 10.5242C61.0604 10.9098 60.2878 11.2183 60.2106 11.2183C59.9788 11.2183 54.3972 14.0719 53.1419 14.8432C52.4659 15.2481 51.7899 15.653 51.6354 15.7301C51.4809 15.8072 51.1719 15.9615 50.9595 16.0965C50.747 16.2314 50.0131 16.6749 49.3178 17.0798C43.7362 20.454 36.2813 26.354 31.4336 31.2129C29.3864 33.276 25.0215 38.1156 23.9979 39.446C23.5924 39.9859 22.7812 41.0271 22.1825 41.779C20.2704 44.2085 15.9442 50.8605 14.264 53.9647C13.9936 54.466 13.5687 55.2373 13.3369 55.6615C13.1052 56.0857 12.2747 57.821 11.4828 59.5177C10.7103 61.2145 9.99571 62.7377 9.91846 62.9112C9.35837 64.0295 7.50428 68.9848 7.21458 70.1417C7.13733 70.4887 7.00214 70.8551 6.92488 71.0093C6.82832 71.1443 6.69312 71.5685 6.61587 71.9348C6.48067 72.5904 6.19097 73.5351 5.84333 74.3642C5.74676 74.5763 5.59226 75.0969 5.49569 75.5211C5.37981 75.9453 5.16736 76.813 4.99354 77.4492C4.49139 79.3195 4.12444 80.8427 3.9313 81.9803C3.83474 82.5588 3.62229 83.7735 3.44847 84.6797C3.29396 85.5859 3.0622 87.167 2.96563 88.2081C2.84975 89.2686 2.71456 90.1941 2.65662 90.2905C2.59868 90.3869 2.52143 91.3895 2.46349 92.5464C2.42486 93.684 2.28966 95.1301 2.1931 95.7664C1.88408 97.5981 1.96134 106.043 2.30898 109.263C2.46349 110.825 2.56005 112.213 2.52143 112.329C2.4828 112.445 2.56005 113.197 2.69525 113.987C2.83044 114.778 2.94632 115.857 2.96563 116.359C2.96563 116.879 3.04289 117.438 3.13945 117.612C3.23602 117.785 3.3519 118.499 3.40984 119.193C3.46778 119.887 3.60298 120.697 3.71886 120.986C3.83474 121.295 3.9313 121.854 3.9313 122.259C3.9313 122.644 4.00856 123.049 4.10512 123.146C4.20169 123.261 4.3562 123.821 4.47208 124.399C4.58796 124.977 4.81972 125.941 4.97423 126.52C5.12874 127.098 5.3605 127.966 5.47638 128.448C5.61157 128.93 5.76608 129.489 5.84333 129.701C5.9399 129.913 6.15235 130.607 6.34548 131.244C6.5193 131.88 6.78969 132.69 6.9442 133.037C7.0987 133.384 7.21458 133.77 7.21458 133.885C7.21458 134.252 9.1073 139.438 9.91846 141.27C10.7489 143.16 13.897 149.426 14.9013 151.2C15.5966 152.415 16.2533 153.591 16.3691 153.803C16.485 154.015 16.8133 154.497 17.103 154.883C17.4121 155.268 17.6438 155.634 17.6438 155.692C17.6438 156.001 20.9271 160.783 22.1632 162.287C22.6074 162.807 23.4765 163.925 24.0945 164.735C24.7125 165.564 25.8713 166.953 26.6825 167.839C27.513 168.746 28.9035 170.269 29.792 171.252C31.646 173.277 35.7598 177.037 39.1783 179.832C40.453 180.874 41.5345 181.799 41.5538 181.876C41.5924 181.973 41.7276 182.05 41.8435 182.069C41.9787 182.069 42.4616 182.378 42.9444 182.725C44.2384 183.689 49.0474 186.909 50.3801 187.68C53.3543 189.434 54.9187 190.321 56.1741 190.919C56.9273 191.266 57.5646 191.632 57.584 191.729C57.6226 191.806 57.7578 191.883 57.8737 191.883C58.0088 191.883 58.5303 192.115 59.0325 192.384C60.2106 193.001 60.6741 192.905 60.2492 192.134C59.9209 191.536 58.202 187.506 58.202 187.294C58.1827 187.217 58.0282 186.812 57.8157 186.388C57.6033 185.964 57.4488 185.52 57.4294 185.405C57.4294 185.27 57.2943 184.923 57.1397 184.633C56.9852 184.325 56.85 183.939 56.85 183.766C56.85 183.612 56.7728 183.399 56.6762 183.284C56.5797 183.187 56.3286 182.551 56.0968 181.857C55.8651 181.163 55.5947 180.43 55.4981 180.218C55.4015 180.006 55.1505 179.273 54.9187 178.579C54.32 176.69 52.8135 172.853 52.1376 171.445C51.5968 170.307 48.2169 165.044 45.5131 161.13C44.9337 160.281 43.8328 158.662 43.0989 157.505C42.0367 155.885 41.6697 155.48 41.4766 155.654C41.3414 155.769 40.8199 156.618 40.3178 157.524C39.3328 159.356 37.8456 161.631 36.822 162.904C35.4122 164.658 35.1611 163.443 36.3778 160.744C36.5517 160.378 37.498 158.083 38.4444 155.731C39.2942 153.649 40.0474 150.814 40.0474 149.754C40.0474 148.539 39.468 145.165 38.6761 141.752C37.865 138.301 37.498 137.587 36.6868 137.819C35.7984 138.05 33.307 139.188 31.8392 139.997C28.6718 141.771 27.3005 142.369 26.9915 142.118C26.837 142.003 26.7211 141.733 26.7211 141.54C26.7211 141.174 28.4593 139.612 31.4722 137.317C35.7212 134.078 36.7448 133.018 37.7298 130.916C38.3092 129.701 39.0624 126.732 39.0817 125.71C39.0817 124.746 37.807 124.553 35.9916 125.267C34.3306 125.903 27.2812 128.448 26.1417 128.814C25.4464 129.046 24.7125 129.316 24.5001 129.412C24.2876 129.508 23.7469 129.682 23.2833 129.778C22.5881 129.933 22.4335 129.894 22.337 129.663C22.2597 129.47 22.3949 129.219 22.6846 129.007C23.3606 128.467 29.0001 125.382 31.3563 124.264C35.277 122.394 37.0538 121.565 37.8843 121.256C40.453 120.234 40.8199 119.964 40.8199 119.039C40.8199 118.615 41.2448 117.072 41.5924 116.204C41.6697 115.992 41.9015 115.375 42.0753 114.855C42.7706 112.811 43.8907 110.073 45.8221 105.696C46.2856 104.694 46.7298 103.652 46.8457 103.382C46.9423 103.113 47.174 102.611 47.3478 102.264C47.5024 101.936 47.5989 101.589 47.5217 101.531C47.4637 101.474 44.2963 101.396 40.4916 101.377C32.8435 101.339 31.9744 101.242 29.7533 100.066C27.3971 98.7935 27.2619 97.6367 28.3628 86.5114C29.3091 77.025 30.1203 73.6316 32.3413 69.7175C34.3885 66.1697 40.704 59.9419 45.6676 56.5677C47.1354 55.5651 50.3221 53.984 51.2492 53.7719C54.5711 53.02 56.0775 52.0173 57.2749 49.7807C59.4187 45.7509 61.3114 44.0542 66.7771 41.162C71.5862 38.6169 72.3973 37.9035 75.275 33.5459C76.569 31.6178 79.4854 28.1279 80.4897 27.3567C81.3394 26.7011 82.0927 26.4119 82.5755 26.5661C83.1356 26.7397 83.6957 28.2243 83.6957 29.5933C83.715 31.4057 84.2365 34.7028 84.6807 35.7054C85.2214 36.9587 85.3759 37.1515 85.7236 37.1515C86.2064 37.1515 87.2493 35.5898 89.1227 32.0806C92.3095 26.0648 97.3309 19.4128 99.9962 17.6775C100.286 17.4847 100.769 17.3883 101.213 17.4269C101.85 17.4847 101.947 17.5618 102.005 18.0053C102.082 18.603 101.464 20.2226 99.9962 23.3462C99.4168 24.5416 98.9533 25.5635 98.9533 25.6214C98.9533 25.6599 98.7988 26.0648 98.5863 26.5083C98.3932 26.9518 97.8138 28.3593 97.3309 29.6319C96.8288 30.9044 96.0369 32.8904 95.5541 34.0473C95.0713 35.1848 94.7236 36.2646 94.7816 36.4189C94.8588 36.6309 95.2451 36.4189 96.288 35.6283C97.0606 35.0306 97.7945 34.4907 97.891 34.3943C98.0069 34.3172 98.7794 33.6809 99.6292 32.9675C101.464 31.4636 104.631 29.2655 108.61 26.7204C109.672 26.0455 113.67 23.7511 113.786 23.7511C113.844 23.7511 114.501 23.3655 115.254 22.9027C116.76 21.9965 120.874 19.9334 122.902 19.0658C123.597 18.7573 124.428 18.4102 124.737 18.256C126.552 17.4269 127.556 17.0605 129.275 16.5592C131.361 15.9808 131.941 15.8458 133.08 15.7301C134.104 15.6144 134.297 15.653 134.644 16C135.475 16.8291 134.857 17.6968 130.743 21.2831C122.902 28.1472 117.166 33.5267 117.436 33.7966C117.61 33.9701 119.02 33.6231 121.028 32.9289C124.196 31.8492 126.108 31.4443 130.531 30.8851C133.389 30.5188 134.49 30.4802 138.932 30.5574C142.679 30.6152 144.494 30.7309 145.692 30.9623C148.82 31.5793 150.733 32.4469 151.293 33.4881C151.524 33.9123 151.505 34.028 151.177 34.375C150.984 34.6064 150.597 34.8764 150.327 34.9728C149.651 35.2427 146.348 36.2068 144.147 36.7852C141.559 37.4793 138.024 38.5398 137.445 38.829C137.155 38.964 136.846 39.2339 136.73 39.4267C136.46 39.8702 136.769 40.063 138.642 40.6607C140.4 41.2392 143.239 42.6467 144.881 43.765C147.044 45.2111 152.027 47.8333 154.479 48.7781C155.117 49.0287 155.812 49.318 156.024 49.3951C156.237 49.4915 156.855 49.7614 157.376 49.9735C162.012 51.9595 165.43 54.2732 169.061 57.8788C170.857 59.672 173.445 62.8727 174.816 65.0129C176.709 67.9629 177.25 68.7341 178.215 69.7946C179.954 71.7034 182.059 72.9567 186.655 74.8463C187.969 75.3861 189.205 75.9067 189.379 76.0031C189.572 76.1188 189.823 76.196 189.939 76.196C190.055 76.196 190.422 76.3116 190.75 76.4659C191.098 76.6201 192.353 77.1407 193.57 77.642C195.559 78.4711 197.973 79.5316 199.132 80.0908C199.75 80.3993 199.827 80.2257 199.576 79.2424C199.46 78.7989 199.228 77.8927 199.055 77.2564C198.321 74.2678 196.042 67.3652 195.327 65.8805C195.018 65.2057 194.168 63.0269 194.168 62.8534C194.168 62.5449 191.059 56.1628 190.267 54.8902C190.074 54.5625 189.842 54.119 189.746 53.8876C189.572 53.502 187.911 50.5712 187.351 49.6843C186.926 49.0095 183.488 43.9192 182.986 43.2251C181.673 41.432 177.134 35.8597 175.743 34.3943C172.827 31.2515 167.864 26.5854 165.121 24.4259C163.306 22.9798 162.881 22.6521 162.185 22.1508C161.78 21.8615 160.833 21.1674 160.08 20.6275C157.106 18.468 154.46 16.7906 151.099 14.9203C150.617 14.6696 150.134 14.3611 150.018 14.284C149.593 13.937 143.606 11.0255 143.335 11.0255C143.2 11.0255 142.911 10.9098 142.698 10.7748C142.486 10.6206 141.617 10.235 140.767 9.88791C139.917 9.54085 139.048 9.19379 138.835 9.09738C137.232 8.38397 136.614 8.13332 136.421 8.13332C136.325 8.13332 136.074 8.0562 135.881 7.95979C135.127 7.57417 133.138 6.91861 132.037 6.68723C131.689 6.61011 131.361 6.47514 131.303 6.37874C131.226 6.28233 130.994 6.2052 130.782 6.2052C130.357 6.2052 129.951 6.1088 128.194 5.54964C127.634 5.37611 127.054 5.24113 126.861 5.24113C126.668 5.24113 126.127 5.10617 125.625 4.95192C125.142 4.79767 124.08 4.54701 123.288 4.39278C122.496 4.21924 121.241 3.96858 120.488 3.81433C117.089 3.12021 114.752 2.77315 111.604 2.54178C110.329 2.44537 108.455 2.27184 107.451 2.17543C105.307 1.94406 97.949 1.94406 96.5391 2.15614Z" fill="#FAFAFA"/>
<path d="M105.037 36.6888C104.612 37.0359 101.522 40.063 98.1808 43.4179C91.9039 49.7229 90.3395 51.1304 89.6056 51.1304C89.1614 51.1304 87.0756 48.9324 85.1829 46.4644C82.6142 43.0901 79.9103 40.5258 78.9446 40.5258C77.6893 40.5258 77.9983 42.0683 79.833 44.8062C80.4704 45.7702 80.9918 46.715 80.9918 46.8885C80.9918 47.814 79.9682 47.8333 75.7772 46.9657C71.5862 46.098 69.2686 46.4451 67.627 48.1997C66.5068 49.3758 65.4639 51.2075 64.6527 53.3092C64.0926 54.7938 63.996 55.2566 63.996 56.7412C63.996 58.2259 64.0733 58.6115 64.4982 59.4599C64.9038 60.2697 64.9617 60.5204 64.7879 60.8867C64.5948 61.3109 64.4789 61.3494 63.0883 61.3494C61.5626 61.3494 60.7128 61.4844 60.7128 61.7158C60.7321 61.7736 61.2149 62.1785 61.7943 62.6027C62.393 63.0269 63.436 63.9524 64.1119 64.6658C65.0583 65.6684 65.348 66.1119 65.348 66.5554C65.348 67.7315 64.0926 67.9629 58.9746 67.7315C55.4016 67.558 54.2814 67.6158 54.3973 67.9822C54.4552 68.175 55.1312 68.4835 59.5153 70.3345C61.9681 71.3564 62.4317 71.7613 61.9102 72.4361C61.6012 72.841 60.9638 73.111 58.4917 73.8437C56.7342 74.3643 55.672 74.9041 55.7299 75.2126C55.7879 75.4633 56.2127 75.5597 57.893 75.6754C60.1141 75.8296 60.5776 76.0032 60.481 76.6587C60.4231 77.0829 58.8973 78.2205 57.4295 78.9146C51.732 81.6333 50.5539 82.3081 50.9016 82.6552C51.114 82.8673 55.5175 82.2503 57.2364 81.7875C62.0647 80.4764 62.6055 80.1486 65.2707 76.8322C66.8351 74.8848 67.1441 74.4414 67.8008 73.3616C68.1484 72.8025 69.23 71.2793 70.215 70.0067C71.1999 68.7149 72.1849 67.423 72.3781 67.1531C72.5905 66.8831 73.3051 66.0926 73.9618 65.4178C75.5455 63.8174 75.8931 63.8753 75.7 65.7648C75.4103 68.9077 73.9425 74.6535 72.9575 76.5623C72.803 76.8322 72.6871 77.1793 72.6871 77.3143C72.6871 77.4492 72.6098 77.6999 72.4939 77.8927C72.3974 78.0662 71.7987 79.3195 71.1613 80.6692C70.0411 83.0793 68.5154 85.7594 67.4338 87.2634C67.1441 87.6683 66.8931 88.0925 66.8931 88.1889C66.8931 88.3817 60.8093 97.4438 57.6033 102.033C56.2514 103.961 53.6441 108.376 51.6934 112.04C50.6698 113.929 49.7041 116.474 49.7041 117.265C49.7041 117.747 49.8007 117.863 50.438 118.036C50.9016 118.152 51.7707 118.171 52.7556 118.075C54.3007 117.92 55.3436 118.075 54.996 118.402C54.8994 118.499 54.2621 118.865 53.5668 119.232C48.9702 121.7 48.584 121.97 47.8887 123.223C47.1934 124.495 46.923 127.002 47.4638 127.214C47.8114 127.349 49.6462 126.886 53.9531 125.575C55.3823 125.132 57.0432 124.65 57.6226 124.495C58.202 124.322 58.9553 124.11 59.2643 124.013C60.5196 123.647 61.0218 123.628 61.3694 123.878C61.9295 124.283 61.3887 124.572 50.805 129.817C47.4638 131.456 46.3436 132.092 46.2084 132.439C45.996 132.998 46.1505 139.496 46.3822 139.959C46.4788 140.152 46.614 140.711 46.6912 141.193C46.7685 141.694 46.9809 142.234 47.1934 142.427C47.5603 142.755 47.6376 142.716 49.5496 141.058C50.6505 140.113 52.2728 138.648 53.1805 137.78C54.0883 136.932 55.2471 135.833 55.7685 135.37C56.3093 134.907 57.3909 133.866 58.1827 133.075C61.6012 129.663 62.5089 129.007 62.7793 129.701C62.8372 129.894 62.8179 130.087 62.7021 130.164C62.6055 130.222 62.3158 130.627 62.0647 131.051C61.5626 131.899 58.6849 135.331 54.2428 140.441C50.6312 144.567 49.0475 146.784 48.8543 148.018C48.3908 150.814 51.2299 156.444 55.614 161.457C57.6226 163.752 59.7664 165.487 62.1033 166.702C65.6956 168.572 66.0819 169.787 63.6291 171.329C62.1806 172.255 61.8909 174.106 62.7986 176.747C63.0304 177.384 63.436 178.56 63.7063 179.35C63.9767 180.141 64.2858 180.97 64.363 181.182C65.0776 182.821 65.9274 184.942 65.9274 185.077C65.9274 185.385 67.9939 188.76 68.9403 189.994C70.7751 192.384 75.1206 196.8 77.1292 198.284C77.8824 198.844 79.9296 199.596 80.7021 199.596C80.9918 199.596 81.3974 199.692 81.6292 199.827C81.861 199.962 82.4983 200.116 83.0198 200.213C84.3524 200.405 87.0563 200.887 88.3116 201.119C88.8717 201.235 89.7408 201.331 90.243 201.331C90.7258 201.331 91.4404 201.408 91.8074 201.524C92.1743 201.62 94.6851 201.794 97.3696 201.909C102.391 202.121 109.093 201.948 112.376 201.524C117.204 200.887 118.479 200.695 119.464 200.444C120.082 200.29 120.797 200.174 121.086 200.174C121.55 200.174 122.419 199.981 125.22 199.287C125.799 199.152 126.803 198.901 127.441 198.747C131.67 197.745 136.016 196.26 141.076 194.1C142.428 193.522 143.606 193.04 143.664 193.04C143.818 193.04 148.067 190.919 148.975 190.379C149.342 190.148 150.25 189.666 150.984 189.28C151.698 188.895 152.76 188.278 153.34 187.911C153.9 187.545 154.402 187.256 154.46 187.256C154.653 187.256 160.698 183.129 162.301 181.895C170.085 175.938 176.477 169.517 182.271 161.824C184.106 159.394 188.954 152.048 188.954 151.701C188.954 151.643 189.398 150.795 189.939 149.812C192.121 145.878 193.57 142.793 195.269 138.378C195.424 137.954 195.636 137.433 195.733 137.221C196.158 136.218 198.166 130.222 198.321 129.47C198.398 129.123 198.533 128.795 198.63 128.737C198.726 128.66 198.804 128.409 198.804 128.159C198.804 127.908 199.016 126.848 199.267 125.806C200.04 122.702 200.349 121.237 200.349 120.793C200.349 120.543 200.426 119.984 200.542 119.54C200.774 118.441 201.276 115.125 201.392 113.794C201.45 113.216 201.585 112.175 201.681 111.481C202.183 107.971 202.068 94.0118 201.508 91.4667C201.256 90.3291 201.372 90.4448 198.031 88.4974C195.656 87.1091 183.681 81.1512 182.638 80.8234C181.518 80.4764 180.919 80.6692 180.649 81.4983C180.437 82.1346 180.61 87.9961 181.016 94.6095C181.113 95.9977 181.093 97.0775 180.977 97.3089C180.881 97.521 180.186 98.1958 179.432 98.8128C177.559 100.317 174.836 101.628 172.634 102.052C172.209 102.148 171.205 102.341 170.413 102.515C169.621 102.669 168.308 102.9 167.516 102.997C166.724 103.093 165.546 103.267 164.909 103.363C164.271 103.479 163.344 103.614 162.842 103.672C162.089 103.768 161.915 103.864 161.915 104.173C161.915 104.52 162.436 105.773 163.653 108.299C163.962 108.935 164.387 109.88 164.58 110.42C164.793 110.941 165.237 112.04 165.546 112.83C165.874 113.621 166.396 115.105 166.724 116.108C167.052 117.111 167.4 118.113 167.497 118.325C167.67 118.73 168.52 121.622 169.003 123.416C169.312 124.63 170.065 128.544 170.413 130.858C170.857 133.712 171.321 143.179 171.031 143.372C170.799 143.507 170.2 142.292 169.737 140.692C169.544 140.055 169.1 138.571 168.733 137.414C166.647 130.897 166.203 129.798 163.035 123.242C158.612 114.161 152.76 105.908 146.136 99.5262C143.722 97.1932 142.679 96.287 136.151 90.8882C132.79 88.1117 130.608 85.8366 129.623 84.0048C128.831 82.5588 128.657 81.9803 128.928 81.6525C129.159 81.3633 131.767 81.3248 133.717 81.5947C136.363 81.961 137.368 82.1346 138.275 82.3467C140.69 82.8865 142.196 83.1565 143.451 83.2529C145.479 83.4457 145.228 83.2529 139.454 80.3414C137.657 79.4352 135.803 78.4519 135.34 78.1241C134.857 77.8156 134.413 77.5456 134.335 77.5456C134.046 77.5264 133.331 76.7937 133.331 76.5045C133.331 75.9839 134.123 75.7525 136.363 75.6561C137.58 75.5982 138.604 75.5018 138.662 75.4054C138.874 75.0584 137.078 74.3257 133.235 73.2074C132.018 72.841 130.84 72.3397 130.705 72.1084C130.589 71.9348 131.496 71.5106 134.587 70.2959C135.861 69.7946 137.426 69.1583 138.063 68.8691C138.7 68.5799 139.434 68.2907 139.685 68.1943C139.994 68.0979 140.072 68.0014 139.917 67.8472C139.782 67.7122 138.488 67.6737 135.996 67.7315C128.194 67.8858 127.537 67.8086 127.537 66.5361C127.537 65.6877 129.391 63.7982 132.172 61.7736C132.462 61.5615 131.477 61.3494 130.144 61.3494C128.754 61.3494 128.541 61.2916 128.059 60.8674C127.769 60.5975 127.537 60.1733 127.537 59.9419C127.537 59.2285 128.348 57.9367 129.835 56.317C133.061 52.8079 136.653 50.9569 140.902 50.6484C143.239 50.4556 143.413 50.3206 142.466 49.3565C141.501 48.3539 140.11 47.4284 138.333 46.6186C134.335 44.7676 132.308 44.3434 125.239 43.8228C122.342 43.6107 121.898 43.4179 122.361 42.6274C122.496 42.3768 123.114 41.4898 123.732 40.6414C124.331 39.7931 124.833 38.9447 124.833 38.7519C124.833 38.3277 124.293 38.3084 123.192 38.6748C122.767 38.8097 121.936 39.0797 121.357 39.2725C120.777 39.446 120.024 39.7159 119.677 39.8702C119.348 40.0244 118.981 40.1401 118.865 40.1401C118.75 40.1401 118.498 40.2173 118.305 40.3329C117.842 40.5836 116.181 41.297 116.046 41.297C115.988 41.297 115.466 41.5091 114.925 41.7598C113.516 42.4153 108.958 44.3241 107.451 44.8833C106.756 45.134 106.022 45.4232 105.81 45.5196C105.037 45.8281 104.052 46.1559 103.241 46.368C102.275 46.5993 101.986 46.3872 102.159 45.5389C102.275 45.0376 102.333 44.9026 103.55 42.2611C105.269 38.5784 106.099 36.631 106.099 36.2839C106.099 35.9561 105.829 36.0718 105.037 36.6888ZM114.887 74.6342C116.857 75.5211 119.87 78.4133 121.086 80.6306C121.28 80.997 121.55 81.4404 121.666 81.5947C122.129 82.231 122.96 84.4869 123.404 86.3186C123.964 88.6709 124.041 91.9487 123.559 93.819C123.153 95.3808 122.052 97.4438 121.338 97.9644C120.449 98.62 118.73 98.8514 116.606 98.5814C113.438 98.1958 110.541 96.6147 108.707 94.301C106.234 91.1389 105.481 89.0565 105.462 85.4509C105.462 83.4071 105.52 82.848 105.906 81.7875C107.451 77.4107 111.044 73.8051 113.438 74.1907C113.805 74.2486 114.462 74.4607 114.887 74.6342ZM89.9919 114.218C92.0777 115.645 91.537 119.386 88.7558 122.876C87.8288 124.052 87.3846 124.438 86.361 124.939C84.8932 125.652 84.8352 125.652 83.5219 125.228C82.3052 124.842 81.2622 123.782 81.0691 122.721C80.7215 120.851 81.8996 118.325 84.2172 116.069C86.3996 113.929 88.5627 113.235 89.9919 114.218ZM69.3072 115.125C69.848 115.433 70.833 116.166 71.5283 116.764C73.0154 118.017 74.8309 118.962 76.3373 119.232C78.7129 119.656 78.7901 119.81 79.9103 125.556C80.0648 126.346 80.3159 127.773 80.4897 128.737C80.818 130.627 81.6485 135.081 82.0541 137.221C82.5369 139.728 83.3288 143.102 83.5798 143.777C84.8352 147.054 85.7043 148.057 88.5241 149.619C90.4361 150.66 95.7666 152.145 97.7752 152.183C98.1615 152.183 98.9533 152.337 99.5327 152.511C100.421 152.8 100.595 152.935 100.634 153.321C100.73 154.304 99.7452 154.94 97.4855 155.326C96.0563 155.577 93.8353 155.634 84.7 155.634C73.6528 155.634 71.2193 155.519 70.7557 154.96C70.5047 154.651 71.451 153.938 75.0047 151.817C76.4532 150.968 77.7858 150.082 77.979 149.869C78.3845 149.426 78.3459 148.308 77.8051 145.03C77.6506 144.027 77.4189 142.465 77.3223 141.559C77.2064 140.653 77.0326 139.612 76.936 139.245C76.8202 138.879 76.7429 138.281 76.7429 137.954C76.7429 137.607 76.627 136.643 76.4725 135.833C76.318 135.004 76.0476 133.423 75.8738 132.304C75.0626 127.233 74.8116 126.751 72.6485 126.231C70.9489 125.845 68.9596 124.592 67.8974 123.261C67.5111 122.779 67.1441 122.336 67.0669 122.278C67.0089 122.22 66.6999 121.738 66.3909 121.218C64.7106 118.441 64.73 116.571 66.4489 115.163C67.3566 114.411 68.0519 114.392 69.3072 115.125ZM112.376 115.626C114.404 115.857 117.069 116.359 119.232 116.879C122.149 117.612 123.636 117.998 125.413 118.518C125.992 118.692 126.919 118.942 127.441 119.097C128.348 119.347 130.82 120.215 132.076 120.736C132.404 120.87 132.964 121.102 133.331 121.256C136.846 122.721 143.123 125.922 143.548 126.443C144.069 127.118 143.799 127.484 142.795 127.484C142.061 127.484 138.874 126.423 136.711 125.479C136.074 125.189 135.378 124.881 135.166 124.785C134.954 124.688 134.297 124.418 133.717 124.206C133.138 123.975 132.481 123.705 132.269 123.628C130.743 122.972 124.659 121.295 119.232 120.041C118.537 119.868 117.668 119.656 117.301 119.559C116.934 119.463 115.853 119.212 114.887 119C113.941 118.788 112.84 118.518 112.473 118.422C112.106 118.306 111.41 118.133 110.928 118.036C108.031 117.458 105.192 116.571 105.056 116.185C104.902 115.78 105.23 115.395 105.771 115.279C106.37 115.144 109.653 115.318 112.376 115.626ZM105.056 122.374C105.365 122.529 105.752 122.664 105.925 122.664C106.08 122.664 106.292 122.741 106.408 122.837C106.505 122.934 107.026 123.184 107.548 123.396C109.537 124.168 115.93 127.272 119.812 129.316C127.054 133.172 138.623 140.73 141.443 143.487C141.752 143.777 142.312 144.259 142.698 144.567C143.084 144.856 143.529 145.338 143.683 145.628C143.934 146.129 143.934 146.187 143.567 146.38C143.123 146.611 142.351 146.264 140.245 144.914C139.531 144.451 138.913 144.066 138.835 144.066C138.778 144.066 136.981 142.909 134.818 141.482C132.675 140.075 130.183 138.474 129.275 137.954C128.368 137.433 126.996 136.604 126.224 136.141C123.172 134.309 123.636 134.579 119.619 132.362C118.074 131.514 116.393 130.569 115.853 130.28C115.331 129.99 114.752 129.643 114.597 129.508C114.443 129.393 113.709 128.969 112.956 128.602C112.222 128.236 111.217 127.715 110.734 127.445C110.252 127.175 109.267 126.636 108.513 126.231C107.78 125.826 106.679 125.17 106.099 124.785C105.52 124.38 104.767 123.917 104.419 123.743C103.685 123.377 102.797 122.471 102.932 122.239C103.106 121.989 104.477 122.066 105.056 122.374ZM101.213 127.33C101.928 127.657 102.874 128.14 103.299 128.409C103.724 128.679 104.67 129.2 105.404 129.547C106.872 130.28 112.241 133.48 113.168 134.175C113.496 134.406 113.825 134.618 113.883 134.618C114.327 134.618 119.503 138.609 123.095 141.733C125.374 143.699 132.443 150.872 133.93 152.742C136.325 155.731 137.175 157.37 136.305 157.37C135.919 157.37 135.243 156.791 132.462 154.111C128.889 150.699 125.838 147.903 122.516 145.03C118.923 141.945 112.144 136.816 107.007 133.307C103.589 130.974 99.1271 127.619 98.934 127.272C98.8374 127.06 98.7988 126.809 98.8761 126.693C99.0306 126.423 99.61 126.578 101.213 127.33ZM101.966 132.497C104.38 134.348 105.249 135.119 108.571 138.378C112.917 142.6 117.996 148.365 120.295 151.624C120.72 152.222 121.434 153.224 121.878 153.841C122.863 155.21 125.181 159.086 125.683 160.204C126.089 161.11 125.992 161.612 125.432 161.612C124.988 161.612 123.52 160.031 121.801 157.755C119.947 155.249 119.812 155.075 118.46 153.514C117.765 152.704 116.857 151.624 116.432 151.103C115.177 149.58 110.039 143.738 108.127 141.656C104.071 137.26 100.653 133.23 100.44 132.632C100.112 131.745 100.923 131.687 101.966 132.497Z" fill="#FAFAFA"/>
<path d="M113.631 82.0767C113.322 82.4431 113.496 83.1565 114.23 84.4097C114.925 85.6437 116.2 86.8392 116.644 86.6656C117.34 86.3957 116.374 83.947 115.041 82.6166C114.134 81.7104 113.979 81.6525 113.631 82.0767Z" fill="#FAFAFA"/>
<path d="M141.539 55.5458C140.902 55.6229 140.072 55.7772 139.705 55.9121C139.338 56.0278 138.778 56.2013 138.449 56.2978C137.58 56.5484 137.735 56.9726 138.739 57.1461C141.018 57.5703 143.509 58.3801 146.039 59.537C146.812 59.9033 147.469 60.1926 147.507 60.1926C147.642 60.1926 152.722 63.1233 153.031 63.374C153.185 63.4896 153.919 64.0295 154.653 64.5308C155.406 65.0321 156.218 65.6491 156.488 65.8998C156.758 66.1504 157.048 66.3625 157.106 66.3625C157.299 66.3625 160.428 68.9077 161.664 70.0452C163.499 71.7806 168.057 76.3695 170.394 78.8568C172.537 81.1319 173.117 81.5754 173.117 80.862C173.097 80.3221 172.576 77.7192 172.267 76.678C171.031 72.5711 167.748 67.3459 163.962 63.4704C159.791 59.2092 156.43 57.3197 150.617 55.97C148.396 55.4687 144.224 55.2759 141.539 55.5458Z" fill="#FAFAFA"/>
</g>
<defs>
<clipPath id="clip0_465_1209">
<rect width="200" height="200" fill="white" transform="translate(2 2)"/>
</clipPath>
</defs>
</svg>
